<svg width="911" height="231" viewBox="0 0 911 231" fill="none" xmlns="http://www.w3.org/2000/svg">
<path d="M249.246 176V47.852H300.288C306.804 47.852 312.958 48.5157 318.75 49.843C324.542 51.0497 329.73 53.2217 334.316 56.359C339.022 59.3757 342.642 63.5387 345.176 68.848C347.83 74.1573 349.158 80.9147 349.158 89.12C349.158 95.3947 348.072 101.006 345.9 105.953C343.848 110.9 340.771 115.124 336.669 118.623C332.687 122.002 327.92 124.656 322.37 126.587L350.787 176H323.094L298.116 130.569H273.681V176H249.246ZM273.681 108.668H297.935C301.917 108.668 305.476 108.366 308.614 107.763C311.872 107.039 314.647 105.953 316.94 104.505C319.353 102.936 321.223 100.885 322.551 98.351C323.878 95.817 324.602 92.6797 324.723 88.939C324.723 84.233 323.697 80.5527 321.646 77.898C319.594 75.2433 316.698 73.373 312.958 72.287C309.338 71.201 304.994 70.658 299.926 70.658H273.681V108.668ZM403.784 177.267C393.769 177.267 385.262 175.276 378.263 171.294C371.265 167.191 365.955 161.52 362.335 154.28C358.715 146.919 356.905 138.412 356.905 128.759C356.905 118.864 358.776 110.237 362.516 102.876C366.257 95.3947 371.627 89.5423 378.625 85.319C385.745 81.0957 394.131 78.984 403.784 78.984C411.024 78.984 417.359 80.251 422.789 82.785C428.34 85.319 432.986 88.758 436.726 93.102C440.467 97.446 443.242 102.514 445.052 108.306C446.862 113.977 447.707 120.071 447.586 126.587C447.586 128.156 447.526 129.724 447.405 131.293C447.285 132.741 447.043 134.249 446.681 135.818H380.797C381.159 139.679 382.185 143.239 383.874 146.497C385.684 149.634 388.158 152.168 391.295 154.099C394.553 155.909 398.596 156.814 403.422 156.814C406.439 156.814 409.275 156.452 411.929 155.728C414.584 155.004 416.877 153.918 418.807 152.47C420.738 150.901 422.065 149.091 422.789 147.04H446.681C445.113 154.039 442.156 159.77 437.812 164.235C433.589 168.7 428.461 172.018 422.427 174.19C416.515 176.241 410.3 177.267 403.784 177.267ZM381.159 118.623H424.418C424.418 115.003 423.574 111.685 421.884 108.668C420.316 105.651 417.963 103.298 414.825 101.609C411.688 99.799 407.827 98.894 403.241 98.894C398.415 98.894 394.372 99.8593 391.114 101.79C387.977 103.6 385.564 106.013 383.874 109.03C382.306 112.047 381.401 115.244 381.159 118.623ZM457.396 176V80.613H479.116L480.926 91.292C483.339 88.034 485.994 85.5603 488.89 83.871C491.906 82.061 494.923 80.8543 497.94 80.251C500.956 79.527 503.792 79.165 506.447 79.165C512.239 79.165 517.307 80.3113 521.651 82.604C525.995 84.8967 529.434 88.4563 531.968 93.283C534.381 89.7837 537.096 87.0083 540.113 84.957C543.129 82.9057 546.327 81.4577 549.706 80.613C553.084 79.6477 556.584 79.165 560.204 79.165C567.564 79.165 573.477 80.7337 577.942 83.871C582.527 86.8877 585.845 91.111 587.897 96.541C589.948 101.971 590.974 108.185 590.974 115.184V176H567.082V122.062C567.082 119.769 566.961 117.416 566.72 115.003C566.478 112.59 565.875 110.297 564.91 108.125C563.944 105.953 562.557 104.203 560.747 102.876C558.937 101.549 556.342 100.885 552.964 100.885C549.826 100.885 547.172 101.609 545 103.057C542.948 104.384 541.259 106.194 539.932 108.487C538.604 110.78 537.639 113.314 537.036 116.089C536.553 118.864 536.312 121.64 536.312 124.415V176H512.42V121.881C512.42 119.709 512.239 117.416 511.877 115.003C511.635 112.59 511.092 110.297 510.248 108.125C509.403 105.953 508.015 104.203 506.085 102.876C504.154 101.549 501.499 100.885 498.121 100.885C493.415 100.885 489.855 102.212 487.442 104.867C485.028 107.522 483.399 110.719 482.555 114.46C481.71 118.201 481.288 121.7 481.288 124.958V176H457.396ZM646.84 177.267C636.825 177.267 628.318 175.276 621.319 171.294C614.321 167.191 609.011 161.52 605.391 154.28C601.771 146.919 599.961 138.412 599.961 128.759C599.961 118.864 601.832 110.237 605.572 102.876C609.313 95.3947 614.683 89.5423 621.681 85.319C628.801 81.0957 637.187 78.984 646.84 78.984C654.08 78.984 660.415 80.251 665.845 82.785C671.396 85.319 676.042 88.758 679.782 93.102C683.523 97.446 686.298 102.514 688.108 108.306C689.918 113.977 690.763 120.071 690.642 126.587C690.642 128.156 690.582 129.724 690.461 131.293C690.341 132.741 690.099 134.249 689.737 135.818H623.853C624.215 139.679 625.241 143.239 626.93 146.497C628.74 149.634 631.214 152.168 634.351 154.099C637.609 155.909 641.652 156.814 646.478 156.814C649.495 156.814 652.331 156.452 654.985 155.728C657.64 155.004 659.933 153.918 661.863 152.47C663.794 150.901 665.121 149.091 665.845 147.04H689.737C688.169 154.039 685.212 159.77 680.868 164.235C676.645 168.7 671.517 172.018 665.483 174.19C659.571 176.241 653.356 177.267 646.84 177.267ZM624.215 118.623H667.474C667.474 115.003 666.63 111.685 664.94 108.668C663.372 105.651 661.019 103.298 657.881 101.609C654.744 99.799 650.883 98.894 646.297 98.894C641.471 98.894 637.428 99.8593 634.17 101.79C631.033 103.6 628.62 106.013 626.93 109.03C625.362 112.047 624.457 115.244 624.215 118.623ZM741.358 177.267C731.704 177.267 723.68 175.095 717.285 170.751C711.01 166.286 706.304 160.374 703.167 153.013C700.15 145.532 698.642 137.266 698.642 128.216C698.642 118.804 700.271 110.418 703.529 103.057C706.907 95.5757 711.855 89.7233 718.371 85.5C725.007 81.156 733.273 78.984 743.168 78.984C746.546 78.984 749.925 79.4063 753.304 80.251C756.682 80.975 759.82 82.1213 762.716 83.69C765.732 85.2587 768.266 87.31 770.318 89.844V47.852H794.391V176H771.042L770.68 164.778C768.387 167.674 765.672 170.027 762.535 171.837C759.518 173.647 756.2 175.035 752.58 176C749.08 176.845 745.34 177.267 741.358 177.267ZM746.064 155.547C751.614 155.547 756.139 154.28 759.639 151.746C763.259 149.091 765.913 145.713 767.603 141.61C769.413 137.387 770.318 132.862 770.318 128.035C770.318 123.088 769.473 118.563 767.784 114.46C766.094 110.357 763.44 107.099 759.82 104.686C756.32 102.152 751.735 100.885 746.064 100.885C740.272 100.885 735.626 102.212 732.127 104.867C728.748 107.522 726.274 110.961 724.706 115.184C723.258 119.407 722.534 123.932 722.534 128.759C722.534 132.379 722.956 135.818 723.801 139.076C724.645 142.213 725.973 145.049 727.783 147.583C729.713 150.117 732.127 152.108 735.023 153.556C738.039 154.883 741.72 155.547 746.064 155.547ZM851.599 219.802C844.239 219.802 837.059 218.837 830.06 216.906C823.062 214.975 816.546 211.657 810.512 206.951L818.838 187.765C822.7 190.782 827.104 193.195 832.051 195.005C837.119 196.815 842.67 197.72 848.703 197.72C858.115 197.72 865.054 195.427 869.518 190.842C873.983 186.377 876.215 179.982 876.215 171.656V165.864C874.164 168.639 871.57 170.872 868.432 172.561C865.295 174.25 861.977 175.457 858.477 176.181C854.978 177.026 851.418 177.448 847.798 177.448C838.507 177.448 831.086 175.517 825.535 171.656C820.105 167.795 816.123 162.546 813.589 155.909C811.176 149.152 809.969 141.489 809.969 132.922V80.613H834.042V127.854C834.042 131.112 834.223 134.37 834.585 137.628C834.947 140.886 835.792 143.903 837.119 146.678C838.567 149.453 840.619 151.686 843.273 153.375C846.049 155.064 849.729 155.909 854.314 155.909C860.227 155.909 864.752 154.461 867.889 151.565C871.027 148.669 873.138 144.928 874.224 140.343C875.31 135.758 875.853 130.991 875.853 126.044V80.613H899.926V164.054C899.926 172.501 899.082 180.163 897.392 187.041C895.824 193.919 893.109 199.771 889.247 204.598C885.507 209.545 880.559 213.286 874.405 215.82C868.251 218.475 860.649 219.802 851.599 219.802Z" fill="#1F4838"/>
<ellipse cx="207.809" cy="136" rx="11.5" ry="12" fill="#CD5C1F"/>
<path d="M12.0017 115.739C72.0341 24.2835 74.3089 260 79.8132 88.0518C82.809 -5.5347 201.916 33.9293 141.81 106.5C81.7031 179.071 118.545 209.808 180.309 157.5" stroke="#1F4838" stroke-width="24" stroke-linecap="round"/>
</svg>
